# xmcd
#
# Track frame offsets:
#	150
#	28312
#	42123
#	60837
#	72118
#	84264
#	98290
#	112646
#	124069
#	138850
#	156975
#	167530
#	186469
#	203429
#	216740
#	230222
#	252907
#	268786
#
# Disc length: 3857 seconds
#
# Revision: 0
# Processed by: cddbd v1.5.2PL0 Copyright (c) Steve Scherf et al.
# Submitted via: EasyCDDAExtractor 16.0.6.1
#
DISCID=f20f0f12
DTITLE=Συλλογικός δίσκος - Μουσικό ημερολόγιο 2004 Για φίλους λαϊκού τραγουδιο
DTITLE=ύ
DYEAR=2004
DGENRE=Λαϊκή
TTITLE0=Άνευ ερμηνευτού - Bebis Lament [σόλο μπουζούκι Δημήτρης Στεργίου ή Μπέ
TTITLE0=μπης]
TTITLE1=Τζουανάκος Σταύρος - Λίγα ψίχουλα αγάπης σού γυρεύω [Στ. Τζουαννάκος-Κ
TTITLE1=ώστας Βίρβος]
TTITLE2=Σεβάς Χανούμ - Πάντα εσένα συλλογιέμαι [Στράτος Ατταλίδης-Χαρ. Βασιλει
TTITLE2=άδης]
TTITLE3=Βάγιας - Σκαλί σκαλί [Γιώργος Λαύκας-Χαράλαμπος Βασιλειάδης]
TTITLE4=Λίντα Μαίρη - Σκότωσέ με [Μανώλης Χιώτης-Χρήστος Κολοκοτρώνης]
TTITLE5=Αγγελόπουλος Μανώλης - Δυναμίτης με φυτίλι [Μανώλης Αγγελόπουλος]
TTITLE6=Τζουανάκος Σταύρος - Σταλαγματιά, σταλαγματιά [Στ. Τζουανάκος-Νίκος Γκ
TTITLE6=ούμας]
TTITLE7=Βάγιας-Καλλέργης Ν. - Ο πασατέμπος [Μανώλης Χιώτης-Γιώργος Γιαννακόπου
TTITLE7=λος]
TTITLE8=Λίντα Μαίρη - Εσύ δεν είσαι άνθρωπος [Μανώλης Χιώτης-Χρήστος Κολοκοτρώ
TTITLE8=νης]
TTITLE9=Τατασσόπουλος Γιάννης - Το κορίτσι απόψε θέλει [Γιάννης Τατασσόπουλος-
TTITLE9=Χρήστος Κολοκοτρώνης]
TTITLE10=Άνευ ερμηνευτού - Spannish flame [Γιάννης Σταματίου Σπόρος]
TTITLE11=Αγγελόπουλος Μανώλης - Θα αλλάξω σπίτι [Παν. Κοκοτίνης-Κλειώ Ανδριακο
TTITLE11=πούλου]
TTITLE12=Τατασσόπουλος Γιάννης - Καταστροφή [Κ. Λαβίδας-Χρήστος Κολοκοτρώνης]
TTITLE13=Χρυσάφη Άννα - Το ρομάντζο μας [Γιώργος Μητσάκης]
TTITLE14=Τζουανάκος Σταύρος - Μα είναι και Θεός [Σταύρος Τζουανάκος-Ευτ. Παπαγ
TTITLE14=ιαννοπούλου]
TTITLE15=Στεργίου Δημήτρης ή Μπέμπης - Ο Χάρος [Παναγιώτης Τούντας]
TTITLE16=Σεβάς Χανούμ - Μέσ' στον κόσμο ορφανός [Στέλιος Καζαντζίδης]
TTITLE17=Άνευ ερμηνευτού - Concerto for bouzoukee [Ανέστος Αθανασίου]
EXTD=
EXTT0=
EXTT1=
EXTT2=
EXTT3=
EXTT4=
EXTT5=
EXTT6=
EXTT7=
EXTT8=
EXTT9=
EXTT10=
EXTT11=
EXTT12=
EXTT13=
EXTT14=
EXTT15=
EXTT16=
EXTT17=
PLAYORDER=
